<?xml version="1.0" encoding="utf-8"?>
<!DOCTYPE svg PUBLIC "-//W3C//DTD SVG 1.1//EN" "http://www.w3.org/Graphics/SVG/1.1/DTD/svg11.dtd">
<svg version="1.1" id="图形" xmlns="http://www.w3.org/2000/svg" xmlns:xlink="http://www.w3.org/1999/xlink" x="0px" y="0px" width="1024px" height="1024px" viewBox="0 0 1024 1024" enable-background="new 0 0 1024 1024" xml:space="preserve">
  <path fill="#272636" d="M486.4-212c-129.9456 0-252.0576 50.5856-343.9616 142.4384s-142.4384 214.016-142.4384 343.9104c0 129.9456 50.5856 252.0576 142.4384 343.9616s214.016 142.4896 343.9616 142.4896c129.9456 0 252.0576-50.5856 343.9616-142.4896s142.4384-214.016 142.4384-343.9616-50.5856-252.0576-142.4384-343.9104c-91.8528-91.8528-214.016-142.4384-343.9616-142.4384zM486.4 709.6c-239.9744 0-435.2-195.2256-435.2-435.2s195.2256-435.2 435.2-435.2 435.2 195.2256 435.2 435.2-195.2256 435.2-435.2 435.2zM332.8 402.4c-42.3424 0-76.8 34.4576-76.8 76.8s34.4576 76.8 76.8 76.8 76.8-34.4576 76.8-76.8-34.4576-76.8-76.8-76.8zM332.8 504.8c-14.1312 0-25.6-11.4688-25.6-25.6s11.4688-25.6 25.6-25.6 25.6 11.4688 25.6 25.6-11.4688 25.6-25.6 25.6zM640 402.4c-42.3424 0-76.8 34.4576-76.8 76.8s34.4576 76.8 76.8 76.8 76.8-34.4576 76.8-76.8-34.4576-76.8-76.8-76.8zM640 504.8c-14.1312 0-25.6-11.4688-25.6-25.6s11.4688-25.6 25.6-25.6 25.6 11.4688 25.6 25.6-11.4688 25.6-25.6 25.6zM486.4-58.4c-183.5008 0-332.8 149.2992-332.8 332.8 0 14.1312 11.4688 25.6 25.6 25.6s25.6-11.4688 25.6-25.6c0-155.2896 126.3104-281.6 281.6-281.6s281.6 126.3104 281.6 281.6c0 14.1312 11.4688 25.6 25.6 25.6s25.6-11.4688 25.6-25.6c0-183.5008-149.2992-332.8-332.8-332.8z" transform="translate(0, 812) scale(1, -1)"/>
</svg>
