<?xml version="1.0" encoding="utf-8"?>
<!DOCTYPE svg PUBLIC "-//W3C//DTD SVG 1.1//EN" "http://www.w3.org/Graphics/SVG/1.1/DTD/svg11.dtd">
<svg version="1.1" id="图形" xmlns="http://www.w3.org/2000/svg" xmlns:xlink="http://www.w3.org/1999/xlink" x="0px" y="0px" width="1024px" height="1024px" viewBox="0 0 1024 1024" enable-background="new 0 0 1024 1024" xml:space="preserve">
  <path fill="#272636" d="M486.4 44c-127.0272 0-230.4 103.3728-230.4 230.4s103.3728 230.4 230.4 230.4c127.0272 0 230.4-103.3728 230.4-230.4s-103.3728-230.4-230.4-230.4zM486.4 453.6c-98.816 0-179.2-80.384-179.2-179.2s80.384-179.2 179.2-179.2 179.2 80.384 179.2 179.2-80.384 179.2-179.2 179.2zM896-109.6l-819.2 0c-42.3424 0-76.8 34.4576-76.8 76.8l0 512c0 42.3424 34.4576 76.8 76.8 76.8l76.8 0c21.248 0 54.272 13.6704 69.3248 28.7232l30.0032 30.0032c24.9344 24.9344 70.2976 43.7248 105.5232 43.7248l256 0c35.2256 0 80.5888-18.7904 105.5232-43.7248l30.0032-30.0032c15.0016-15.0016 48.0768-28.7232 69.3248-28.7232l76.8 0c42.3424 0 76.8-34.4576 76.8-76.8l0-512c0-42.3424-34.4576-76.8-76.8-76.8zM76.8 504.8c-14.1312 0-25.6-11.4688-25.6-25.6l0-512c0-14.1312 11.4688-25.6 25.6-25.6l819.2 0c14.1312 0 25.6 11.4688 25.6 25.6l0 512c0 14.1312-11.4688 25.6-25.6 25.6l-76.8 0c-35.2256 0-80.5888 18.7904-105.5232 43.7248l-30.0032 30.0032c-15.0016 15.0016-48.0768 28.7232-69.3248 28.7232l-256 0c-21.248 0-54.272-13.6704-69.3248-28.7232l-30.0032-30.0032c-24.9344-24.9344-70.2464-43.7248-105.5232-43.7248l-76.8 0z" transform="translate(0, 812) scale(1, -1)"/>
</svg>
